<?xml version="1.0" standalone="no"?>
<!DOCTYPE svg PUBLIC "-//W3C//DTD SVG 20010904//EN"
 "http://www.w3.org/TR/2001/REC-SVG-20010904/DTD/svg10.dtd">
<svg version="1.0" xmlns="http://www.w3.org/2000/svg"
 width="512.000000pt" height="512.000000pt" viewBox="0 0 512.000000 512.000000"
 preserveAspectRatio="xMidYMid meet">
<metadata>
Created by potrace 1.14, written by Peter Selinger 2001-2017
</metadata>
<g transform="translate(0.000000,512.000000) scale(0.100000,-0.100000)"
fill="#000000" stroke="none">
<path d="M1565 4740 c-46 -17 -50 -33 -51 -219 -1 -144 1 -181 14 -203 33 -56
119 -44 139 19 5 15 8 91 7 168 -2 188 -2 189 -16 208 -17 22 -67 36 -93 27z"/>
<path d="M789 4379 c-31 -12 -54 -58 -45 -92 7 -29 256 -244 293 -253 54 -14
104 41 90 99 -4 15 -52 64 -128 128 -158 135 -160 136 -210 118z"/>
<path d="M2340 4383 c-16 -7 -154 -120 -231 -191 -26 -24 -49 -55 -52 -70 -14
-74 76 -121 133 -69 14 12 50 42 80 67 30 25 72 62 95 82 22 21 44 38 48 38
14 0 38 70 32 90 -13 41 -66 68 -105 53z"/>
<path d="M1419 4204 c-235 -74 -397 -286 -405 -529 -8 -217 86 -396 270 -517
95 -62 190 -87 316 -84 119 3 138 7 224 43 107 44 213 138 273 240 102 175
102 412 -1 587 -38 65 -118 149 -184 192 -138 92 -333 119 -493 68z"/>
<path d="M543 3720 c-47 -19 -57 -87 -18 -125 24 -25 26 -25 204 -25 172 0
181 1 205 23 38 34 38 75 1 112 -24 25 -26 25 -197 24 -95 0 -183 -4 -195 -9z"/>
<path d="M2263 3718 c-12 -6 -27 -26 -33 -44 -9 -28 -8 -39 6 -63 10 -16 27
-32 38 -35 41 -11 347 -6 369 5 54 29 58 97 8 136 -21 16 -356 17 -388 1z"/>
<path d="M1020 3263 c-8 -4 -49 -36 -90 -72 -41 -37 -92 -79 -113 -95 -84 -64
-99 -133 -37 -169 27 -17 76 -15 90 2 3 4 32 29 65 56 177 148 195 167 195
204 0 56 -57 94 -110 74z"/>
<path d="M2088 3252 c-26 -15 -30 -26 -30 -67 0 -8 0 -19 1 -25 0 -5 62 -62
137 -127 115 -99 142 -117 170 -117 58 0 98 59 72 108 -7 13 -50 55 -95 94
-186 160 -201 168 -255 134z"/>
<path d="M1550 3003 c-14 -9 -27 -18 -30 -21 -10 -8 -9 -347 2 -375 30 -76
146 -57 149 25 1 18 1 102 2 187 l0 154 -27 24 c-32 27 -62 29 -96 6z"/>
<path d="M705 2070 c-147 -34 -306 -116 -409 -212 -26 -24 -26 -82 0 -107 34
-32 67 -34 110 -4 22 14 57 39 80 54 209 143 473 165 699 58 36 -17 116 -69
178 -115 169 -128 360 -213 532 -239 45 -6 200 -8 230 -1 11 2 40 7 64 11 119
20 272 91 414 194 106 75 157 104 241 136 148 56 304 69 446 37 90 -20 218
-81 315 -150 230 -166 422 -235 654 -234 168 1 319 48 493 156 81 49 107 91
87 137 -24 60 -72 64 -149 13 -329 -215 -650 -197 -989 55 -176 130 -358 195
-551 196 -174 0 -279 -23 -433 -94 -72 -33 -201 -111 -217 -131 -3 -3 -36 -25
-73 -49 -296 -185 -637 -162 -925 61 -175 135 -283 192 -435 227 -105 25 -259
25 -362 1z"/>
<path d="M704 1510 c-85 -20 -115 -31 -209 -78 -65 -32 -214 -136 -216 -150 0
-4 -3 -19 -5 -34 -5 -32 29 -76 65 -83 28 -5 48 5 116 56 88 66 207 118 310
137 71 12 227 6 295 -12 60 -16 202 -81 232 -105 114 -95 202 -154 299 -201
71 -34 202 -78 258 -86 20 -2 47 -7 59 -10 47 -10 199 -4 276 10 126 25 266
85 371 161 240 172 378 225 585 223 179 -2 303 -49 495 -188 132 -96 284 -164
431 -195 94 -19 247 -22 324 -6 30 6 64 13 75 15 96 20 276 111 343 173 40 37
44 45 38 74 -8 40 -41 69 -78 69 -17 0 -52 -16 -87 -40 -129 -88 -283 -140
-426 -144 -73 -2 -218 21 -270 42 -85 35 -203 102 -270 152 -100 75 -255 153
-360 182 -124 33 -326 31 -460 -6 -131 -35 -239 -89 -399 -197 -72 -48 -165
-102 -207 -118 -272 -108 -558 -54 -820 155 -242 193 -508 264 -765 204z"/>
<path d="M710 952 c-134 -31 -258 -91 -372 -180 -67 -52 -82 -89 -51 -130 23
-31 68 -45 97 -30 12 6 37 24 57 39 83 65 194 117 306 143 57 13 219 15 268 3
82 -20 120 -33 187 -67 42 -21 83 -43 90 -49 133 -112 244 -181 393 -242 79
-33 245 -63 340 -61 191 3 402 78 560 198 183 139 369 207 553 203 169 -4 312
-57 481 -178 127 -91 300 -176 398 -196 256 -52 441 -30 643 77 156 82 203
132 179 190 -25 61 -73 63 -159 6 -316 -205 -649 -187 -964 51 -133 100 -301
177 -431 198 -98 15 -274 8 -369 -16 -106 -25 -248 -86 -327 -139 -30 -20 -94
-63 -141 -94 -314 -211 -655 -185 -987 73 -191 149 -368 216 -570 217 -66 1
-134 -6 -181 -16z"/>
</g>
</svg>
